<svg xmlns="http://www.w3.org/2000/svg" xmlns:xlink="http://www.w3.org/1999/xlink" width="500" zoomAndPan="magnify" viewBox="0 0 375 374.999991" height="500" preserveAspectRatio="xMidYMid meet" version="1.0"><defs><clipPath id="2b111dc3e2"><path d="M 24.515625 79.816406 L 322.957031 79.816406 L 322.957031 258.941406 L 24.515625 258.941406 Z M 24.515625 79.816406 " clip-rule="nonzero"/></clipPath><clipPath id="b8ed328360"><path d="M 0 0 L 120.175781 0 L 120.175781 137.472656 L 0 137.472656 Z M 0 0 " clip-rule="nonzero"/></clipPath><clipPath id="4be5f1903c"><path d="M 50.042969 123.410156 L 72.542969 123.410156 L 72.542969 145.910156 L 50.042969 145.910156 Z M 50.042969 123.410156 " clip-rule="nonzero"/></clipPath><clipPath id="460f4979a9"><path d="M 61.109375 125.355469 L 79.109375 125.355469 L 79.109375 143.355469 L 61.109375 143.355469 Z M 61.109375 125.355469 " clip-rule="nonzero"/></clipPath><clipPath id="e39bdd7251"><path d="M 70.226562 123.410156 L 88.226562 123.410156 L 88.226562 141.410156 L 70.226562 141.410156 Z M 70.226562 123.410156 " clip-rule="nonzero"/></clipPath><clipPath id="68cda91058"><path d="M 79.347656 121.757812 L 97.347656 121.757812 L 97.347656 139.757812 L 79.347656 139.757812 Z M 79.347656 121.757812 " clip-rule="nonzero"/></clipPath><clipPath id="38c4af9796"><path d="M 80.847656 120.710938 L 98.847656 120.710938 L 98.847656 138.710938 L 80.847656 138.710938 Z M 80.847656 120.710938 " clip-rule="nonzero"/></clipPath><clipPath id="dd8e1e9d23"><path d="M 53.640625 0 L 203.640625 0 L 203.640625 138.949219 L 53.640625 138.949219 Z M 53.640625 0 " clip-rule="nonzero"/></clipPath><clipPath id="3121e748d5"><path d="M 274.097656 0 L 375 0 L 375 138.972656 L 274.097656 138.972656 Z M 274.097656 0 " clip-rule="nonzero"/></clipPath></defs><rect x="-37.5" width="450" fill="#ffffff" y="-37.499999" height="449.999989" fill-opacity="1"/><rect x="-37.5" width="450" fill="#ffffff" y="-37.499999" height="449.999989" fill-opacity="1"/><g clip-path="url(#2b111dc3e2)"><path fill="#000000" d="M 132.15625 258.902344 L 188.511719 186.421875 L 234.71875 126.964844 L 282 186.839844 L 282 79.042969 L 323.015625 79.042969 L 323.015625 258.902344 L 285.046875 258.902344 L 234.898438 192.398438 L 188.511719 254.898438 L 185.527344 258.902344 Z M 69.289062 147.761719 C 67.558594 148.535156 65.886719 149.375 64.15625 150.269531 C 56.574219 154.273438 50.1875 160.25 45.289062 167.835938 C 40.214844 175.726562 37.648438 186.003906 37.648438 198.3125 C 37.648438 216.597656 43.679688 231.476562 55.617188 242.53125 C 67.378906 253.347656 82.960938 258.902344 102.007812 258.902344 L 104.273438 258.902344 L 135.4375 218.867188 L 104.15625 218.867188 C 95.675781 218.867188 89.347656 216.894531 84.753906 212.953125 C 80.574219 209.488281 78.664062 204.765625 78.664062 198.3125 C 78.664062 193.234375 79.679688 189.527344 81.707031 187.257812 C 84.335938 184.390625 87.378906 182.417969 91.140625 181.28125 C 95.855469 179.90625 100.511719 179.191406 105.109375 179.191406 L 147.617188 179.191406 L 147.617188 203.152344 L 188.570312 150.449219 L 188.570312 78.984375 L 147.617188 78.984375 L 147.617188 139.09375 L 111.257812 139.09375 L 73.410156 78.984375 L 24.515625 78.984375 Z M 69.289062 147.761719 " fill-opacity="1" fill-rule="nonzero"/></g><path stroke-linecap="butt" transform="matrix(0.704817, -0.256384, 0.256384, 0.704817, 30.625513, 158.474082)" fill="none" stroke-linejoin="miter" d="M 1.552967 24.798994 C 26.238739 -5.598785 75.753216 -5.599657 150.089726 24.79949 " stroke="#ffffff" stroke-width="4" stroke-opacity="1" stroke-miterlimit="4"/><g clip-path="url(#b8ed328360)"><path fill="#ffffff" d="M -29.824219 -12.527344 L 120.15625 -12.527344 L 120.15625 137.453125 L -29.824219 137.453125 Z M -29.824219 -12.527344 " fill-opacity="1" fill-rule="nonzero"/></g><g clip-path="url(#4be5f1903c)"><path fill="#ffffff" d="M 50.042969 123.410156 L 72.164062 123.410156 L 72.164062 145.53125 L 50.042969 145.53125 Z M 50.042969 123.410156 " fill-opacity="1" fill-rule="nonzero"/></g><g clip-path="url(#460f4979a9)"><path fill="#ffffff" d="M 61.109375 125.355469 L 79.339844 125.355469 L 79.339844 143.589844 L 61.109375 143.589844 Z M 61.109375 125.355469 " fill-opacity="1" fill-rule="nonzero"/></g><g clip-path="url(#e39bdd7251)"><path fill="#ffffff" d="M 70.226562 123.410156 L 88.460938 123.410156 L 88.460938 141.640625 L 70.226562 141.640625 Z M 70.226562 123.410156 " fill-opacity="1" fill-rule="nonzero"/></g><g clip-path="url(#68cda91058)"><path fill="#ffffff" d="M 79.347656 121.757812 L 97.578125 121.757812 L 97.578125 139.992188 L 79.347656 139.992188 Z M 79.347656 121.757812 " fill-opacity="1" fill-rule="nonzero"/></g><g clip-path="url(#38c4af9796)"><path fill="#ffffff" d="M 80.847656 120.710938 L 99.078125 120.710938 L 99.078125 138.941406 L 80.847656 138.941406 Z M 80.847656 120.710938 " fill-opacity="1" fill-rule="nonzero"/></g><g clip-path="url(#dd8e1e9d23)"><path fill="#ffffff" d="M 53.640625 -11.050781 L 203.617188 -11.050781 L 203.617188 138.925781 L 53.640625 138.925781 Z M 53.640625 -11.050781 " fill-opacity="1" fill-rule="nonzero"/></g><path stroke-linecap="butt" transform="matrix(0, 0.75, -0.75, 0, 150.263315, 74.480275)" fill="none" stroke-linejoin="miter" d="M 0.000258188 10.00213 L 197.844021 10.00213 " stroke="#ffffff" stroke-width="20" stroke-opacity="1" stroke-miterlimit="4"/><g clip-path="url(#3121e748d5)"><path fill="#ffffff" d="M 274.097656 -11.027344 L 424.074219 -11.027344 L 424.074219 138.953125 L 274.097656 138.953125 Z M 274.097656 -11.027344 " fill-opacity="1" fill-rule="nonzero"/></g></svg>