<svg xmlns="http://www.w3.org/2000/svg" xmlns:xlink="http://www.w3.org/1999/xlink" width="500" zoomAndPan="magnify" viewBox="0 0 375 374.999991" height="500" preserveAspectRatio="xMidYMid meet" version="1.0"><defs><clipPath id="a5dc8f9a9c"><path d="M 25.265625 79.816406 L 323.707031 79.816406 L 323.707031 258.941406 L 25.265625 258.941406 Z M 25.265625 79.816406 " clip-rule="nonzero"/></clipPath><clipPath id="2eaa08691e"><path d="M 0 0 L 120.925781 0 L 120.925781 137.472656 L 0 137.472656 Z M 0 0 " clip-rule="nonzero"/></clipPath><clipPath id="25b2a2860c"><path d="M 50.792969 123.410156 L 73 123.410156 L 73 145.910156 L 50.792969 145.910156 Z M 50.792969 123.410156 " clip-rule="nonzero"/></clipPath><clipPath id="cc2b577e4d"><path d="M 61.859375 125.355469 L 79.859375 125.355469 L 79.859375 143.355469 L 61.859375 143.355469 Z M 61.859375 125.355469 " clip-rule="nonzero"/></clipPath><clipPath id="179dd5471a"><path d="M 70.976562 123.410156 L 88.976562 123.410156 L 88.976562 141.410156 L 70.976562 141.410156 Z M 70.976562 123.410156 " clip-rule="nonzero"/></clipPath><clipPath id="ea133ee64c"><path d="M 80.097656 121.757812 L 98.097656 121.757812 L 98.097656 139.757812 L 80.097656 139.757812 Z M 80.097656 121.757812 " clip-rule="nonzero"/></clipPath><clipPath id="356c8b04f1"><path d="M 81.597656 120.710938 L 99.597656 120.710938 L 99.597656 138.710938 L 81.597656 138.710938 Z M 81.597656 120.710938 " clip-rule="nonzero"/></clipPath><clipPath id="b67c27b6b7"><path d="M 54.390625 0 L 204.390625 0 L 204.390625 138.949219 L 54.390625 138.949219 Z M 54.390625 0 " clip-rule="nonzero"/></clipPath><clipPath id="e9f96334f9"><path d="M 219.617188 0 L 369.617188 0 L 369.617188 137.472656 L 219.617188 137.472656 Z M 219.617188 0 " clip-rule="nonzero"/></clipPath><clipPath id="df04b25d64"><path d="M 0 0 L 120.175781 0 L 120.175781 137.472656 L 0 137.472656 Z M 0 0 " clip-rule="nonzero"/></clipPath><clipPath id="9f290855ac"><path d="M 50.042969 123.410156 L 72.542969 123.410156 L 72.542969 145.910156 L 50.042969 145.910156 Z M 50.042969 123.410156 " clip-rule="nonzero"/></clipPath><clipPath id="6718d6b372"><path d="M 61.109375 125.355469 L 79.109375 125.355469 L 79.109375 143.355469 L 61.109375 143.355469 Z M 61.109375 125.355469 " clip-rule="nonzero"/></clipPath><clipPath id="e2e5686cb3"><path d="M 70.226562 123.410156 L 88.226562 123.410156 L 88.226562 141.410156 L 70.226562 141.410156 Z M 70.226562 123.410156 " clip-rule="nonzero"/></clipPath><clipPath id="22a0760114"><path d="M 79.347656 121.757812 L 97.347656 121.757812 L 97.347656 139.757812 L 79.347656 139.757812 Z M 79.347656 121.757812 " clip-rule="nonzero"/></clipPath><clipPath id="dc5baee048"><path d="M 80.847656 120.710938 L 98.847656 120.710938 L 98.847656 138.710938 L 80.847656 138.710938 Z M 80.847656 120.710938 " clip-rule="nonzero"/></clipPath><clipPath id="281a855765"><path d="M 0 0 L 131.855469 0 L 131.855469 96.414062 L 0 96.414062 Z M 0 0 " clip-rule="nonzero"/></clipPath><clipPath id="1d0b2a2eec"><path d="M 123.546875 234.765625 L 150.546875 234.765625 L 150.546875 261.765625 L 123.546875 261.765625 Z M 123.546875 234.765625 " clip-rule="nonzero"/></clipPath><clipPath id="9ef6dea492"><path d="M 150.761719 137.167969 L 189.761719 137.167969 L 189.761719 208.417969 L 150.761719 208.417969 Z M 150.761719 137.167969 " clip-rule="nonzero"/></clipPath><clipPath id="21883cb474"><path d="M 177.246094 192.851562 L 210.90625 192.851562 L 210.90625 222.878906 L 177.246094 222.878906 Z M 177.246094 192.851562 " clip-rule="nonzero"/></clipPath><clipPath id="7d719b8403"><path d="M 192.257812 192.851562 L 195.890625 192.851562 C 199.871094 192.851562 203.691406 194.433594 206.503906 197.25 C 209.320312 200.066406 210.902344 203.882812 210.902344 207.863281 C 210.902344 211.847656 209.320312 215.664062 206.503906 218.480469 C 203.691406 221.296875 199.871094 222.878906 195.890625 222.878906 L 192.257812 222.878906 C 188.273438 222.878906 184.457031 221.296875 181.640625 218.480469 C 178.824219 215.664062 177.246094 211.847656 177.246094 207.863281 C 177.246094 203.882812 178.824219 200.066406 181.640625 197.25 C 184.457031 194.433594 188.273438 192.851562 192.257812 192.851562 Z M 192.257812 192.851562 " clip-rule="nonzero"/></clipPath><clipPath id="0a8f24e2c1"><path d="M 0.246094 0.851562 L 33.90625 0.851562 L 33.90625 30.878906 L 0.246094 30.878906 Z M 0.246094 0.851562 " clip-rule="nonzero"/></clipPath><clipPath id="18f2b47b4d"><path d="M 15.257812 0.851562 L 18.890625 0.851562 C 22.871094 0.851562 26.691406 2.433594 29.503906 5.25 C 32.320312 8.066406 33.902344 11.882812 33.902344 15.863281 C 33.902344 19.847656 32.320312 23.664062 29.503906 26.480469 C 26.691406 29.296875 22.871094 30.878906 18.890625 30.878906 L 15.257812 30.878906 C 11.273438 30.878906 7.457031 29.296875 4.640625 26.480469 C 1.824219 23.664062 0.246094 19.847656 0.246094 15.863281 C 0.246094 11.882812 1.824219 8.066406 4.640625 5.25 C 7.457031 2.433594 11.273438 0.851562 15.257812 0.851562 Z M 15.257812 0.851562 " clip-rule="nonzero"/></clipPath><clipPath id="8be097d541"><rect x="0" width="34" y="0" height="31"/></clipPath></defs><rect x="-37.5" width="450" fill="#ffffff" y="-37.499999" height="449.999989" fill-opacity="1"/><rect x="-37.5" width="450" fill="#ffffff" y="-37.499999" height="449.999989" fill-opacity="1"/><g clip-path="url(#a5dc8f9a9c)"><path fill="#000000" d="M 132.90625 258.902344 L 189.261719 186.421875 L 235.46875 126.964844 L 282.75 186.839844 L 282.75 79.042969 L 323.765625 79.042969 L 323.765625 258.902344 L 285.796875 258.902344 L 235.648438 192.398438 L 189.261719 254.898438 L 186.277344 258.902344 Z M 70.039062 147.761719 C 68.308594 148.535156 66.636719 149.375 64.90625 150.269531 C 57.324219 154.273438 50.9375 160.25 46.039062 167.835938 C 40.964844 175.726562 38.398438 186.003906 38.398438 198.3125 C 38.398438 216.597656 44.429688 231.476562 56.367188 242.53125 C 68.128906 253.347656 83.710938 258.902344 102.757812 258.902344 L 105.023438 258.902344 L 136.1875 218.867188 L 104.90625 218.867188 C 96.425781 218.867188 90.097656 216.894531 85.503906 212.953125 C 81.324219 209.488281 79.414062 204.765625 79.414062 198.3125 C 79.414062 193.234375 80.429688 189.527344 82.457031 187.257812 C 85.085938 184.390625 88.128906 182.417969 91.890625 181.28125 C 96.605469 179.90625 101.261719 179.191406 105.859375 179.191406 L 148.367188 179.191406 L 148.367188 203.152344 L 189.320312 150.449219 L 189.320312 78.984375 L 148.367188 78.984375 L 148.367188 139.09375 L 112.007812 139.09375 L 74.160156 78.984375 L 25.265625 78.984375 Z M 70.039062 147.761719 " fill-opacity="1" fill-rule="nonzero"/></g><path stroke-linecap="butt" transform="matrix(0.704817, -0.256384, 0.256384, 0.704817, 31.375513, 158.474097)" fill="none" stroke-linejoin="miter" d="M 1.552974 24.798976 C 26.238745 -5.598803 75.753223 -5.599675 150.089732 24.799472 " stroke="#ffffff" stroke-width="4" stroke-opacity="1" stroke-miterlimit="4"/><g clip-path="url(#2eaa08691e)"><path fill="#ffffff" d="M -29.074219 -12.527344 L 120.90625 -12.527344 L 120.90625 137.453125 L -29.074219 137.453125 Z M -29.074219 -12.527344 " fill-opacity="1" fill-rule="nonzero"/></g><g clip-path="url(#25b2a2860c)"><path fill="#ffffff" d="M 50.792969 123.410156 L 72.914062 123.410156 L 72.914062 145.53125 L 50.792969 145.53125 Z M 50.792969 123.410156 " fill-opacity="1" fill-rule="nonzero"/></g><g clip-path="url(#cc2b577e4d)"><path fill="#ffffff" d="M 61.859375 125.355469 L 80.089844 125.355469 L 80.089844 143.589844 L 61.859375 143.589844 Z M 61.859375 125.355469 " fill-opacity="1" fill-rule="nonzero"/></g><g clip-path="url(#179dd5471a)"><path fill="#ffffff" d="M 70.976562 123.410156 L 89.210938 123.410156 L 89.210938 141.640625 L 70.976562 141.640625 Z M 70.976562 123.410156 " fill-opacity="1" fill-rule="nonzero"/></g><g clip-path="url(#ea133ee64c)"><path fill="#ffffff" d="M 80.097656 121.757812 L 98.328125 121.757812 L 98.328125 139.992188 L 80.097656 139.992188 Z M 80.097656 121.757812 " fill-opacity="1" fill-rule="nonzero"/></g><g clip-path="url(#356c8b04f1)"><path fill="#ffffff" d="M 81.597656 120.710938 L 99.828125 120.710938 L 99.828125 138.941406 L 81.597656 138.941406 Z M 81.597656 120.710938 " fill-opacity="1" fill-rule="nonzero"/></g><g clip-path="url(#b67c27b6b7)"><path fill="#ffffff" d="M 54.390625 -11.050781 L 204.367188 -11.050781 L 204.367188 138.925781 L 54.390625 138.925781 Z M 54.390625 -11.050781 " fill-opacity="1" fill-rule="nonzero"/></g><path stroke-linecap="butt" transform="matrix(0, 0.75, -0.75, 0, 151.013315, 74.480275)" fill="none" stroke-linejoin="miter" d="M 0.000258188 10.00213 L 197.844021 10.00213 " stroke="#ffffff" stroke-width="20" stroke-opacity="1" stroke-miterlimit="4"/><g clip-path="url(#e9f96334f9)"><path fill="#ffffff" d="M 219.617188 -12.527344 L 369.597656 -12.527344 L 369.597656 137.453125 L 219.617188 137.453125 Z M 219.617188 -12.527344 " fill-opacity="1" fill-rule="nonzero"/></g><path stroke-linecap="butt" transform="matrix(0.704817, -0.256384, 0.256384, 0.704817, 30.625513, 158.474097)" fill="none" stroke-linejoin="miter" d="M 1.552974 24.798976 C 26.238745 -5.598803 75.753223 -5.599675 150.089732 24.799472 " stroke="#ffffff" stroke-width="4" stroke-opacity="1" stroke-miterlimit="4"/><g clip-path="url(#df04b25d64)"><path fill="#ffffff" d="M -29.824219 -12.527344 L 120.15625 -12.527344 L 120.15625 137.453125 L -29.824219 137.453125 Z M -29.824219 -12.527344 " fill-opacity="1" fill-rule="nonzero"/></g><g clip-path="url(#9f290855ac)"><path fill="#ffffff" d="M 50.042969 123.410156 L 72.164062 123.410156 L 72.164062 145.53125 L 50.042969 145.53125 Z M 50.042969 123.410156 " fill-opacity="1" fill-rule="nonzero"/></g><g clip-path="url(#6718d6b372)"><path fill="#ffffff" d="M 61.109375 125.355469 L 79.339844 125.355469 L 79.339844 143.589844 L 61.109375 143.589844 Z M 61.109375 125.355469 " fill-opacity="1" fill-rule="nonzero"/></g><g clip-path="url(#e2e5686cb3)"><path fill="#ffffff" d="M 70.226562 123.410156 L 88.460938 123.410156 L 88.460938 141.640625 L 70.226562 141.640625 Z M 70.226562 123.410156 " fill-opacity="1" fill-rule="nonzero"/></g><g clip-path="url(#22a0760114)"><path fill="#ffffff" d="M 79.347656 121.757812 L 97.578125 121.757812 L 97.578125 139.992188 L 79.347656 139.992188 Z M 79.347656 121.757812 " fill-opacity="1" fill-rule="nonzero"/></g><g clip-path="url(#dc5baee048)"><path fill="#ffffff" d="M 80.847656 120.710938 L 99.078125 120.710938 L 99.078125 138.941406 L 80.847656 138.941406 Z M 80.847656 120.710938 " fill-opacity="1" fill-rule="nonzero"/></g><g clip-path="url(#281a855765)"><path fill="#ffffff" d="M -18.144531 -53.585938 L 131.835938 -53.585938 L 131.835938 96.394531 L -18.144531 96.394531 Z M -18.144531 -53.585938 " fill-opacity="1" fill-rule="nonzero"/></g><path stroke-linecap="butt" transform="matrix(0, 0.75, -0.75, 0, 150.263315, 74.480275)" fill="none" stroke-linejoin="miter" d="M 0.000258188 10.00213 L 197.844021 10.00213 " stroke="#ffffff" stroke-width="20" stroke-opacity="1" stroke-miterlimit="4"/><g clip-path="url(#1d0b2a2eec)"><path fill="#ffffff" d="M 123.546875 234.765625 L 150.484375 234.765625 L 150.484375 261.703125 L 123.546875 261.703125 Z M 123.546875 234.765625 " fill-opacity="1" fill-rule="nonzero"/></g><g clip-path="url(#9ef6dea492)"><path fill="#eb1414" d="M 134.726562 264.519531 L 189.988281 193.511719 L 235.296875 135.261719 L 281.660156 193.921875 L 281.660156 88.3125 L 321.878906 88.3125 L 321.878906 264.519531 L 284.648438 264.519531 L 235.472656 199.363281 L 189.988281 260.597656 L 187.0625 264.519531 Z M 73.085938 155.636719 C 71.386719 156.394531 69.746094 157.214844 68.050781 158.09375 C 60.617188 162.015625 54.351562 167.871094 49.550781 175.304688 C 44.574219 183.03125 42.058594 193.101562 42.058594 205.160156 C 42.058594 223.074219 47.972656 237.648438 59.679688 248.480469 C 71.210938 259.074219 86.488281 264.519531 105.164062 264.519531 L 107.390625 264.519531 L 137.945312 225.296875 L 107.273438 225.296875 C 98.957031 225.296875 92.753906 223.367188 88.246094 219.5 C 84.148438 216.105469 82.273438 211.480469 82.273438 205.160156 C 82.273438 200.183594 83.269531 196.554688 85.261719 194.328125 C 87.835938 191.519531 90.820312 189.589844 94.511719 188.476562 C 99.132812 187.128906 103.699219 186.425781 108.207031 186.425781 L 149.886719 186.425781 L 149.886719 209.902344 L 190.046875 158.269531 L 190.046875 88.253906 L 149.886719 88.253906 L 149.886719 147.148438 L 114.238281 147.148438 L 77.125 88.253906 L 29.179688 88.253906 Z M 73.085938 155.636719 " fill-opacity="1" fill-rule="nonzero"/></g><path stroke-linecap="butt" transform="matrix(0.462, -0.590809, 0.590809, 0.462, 125.381334, 232.685742)" fill="none" stroke-linejoin="miter" d="M -0.00167634 4.499765 L 160.001671 4.500258 " stroke="#ffffff" stroke-width="9" stroke-opacity="1" stroke-miterlimit="4"/><g clip-path="url(#21883cb474)"><g clip-path="url(#7d719b8403)"><g transform="matrix(1, 0, 0, 1, 177, 192)"><g clip-path="url(#8be097d541)"><g clip-path="url(#0a8f24e2c1)"><g clip-path="url(#18f2b47b4d)"><path fill="#000000" d="M 0.246094 0.851562 L 33.90625 0.851562 L 33.90625 30.878906 L 0.246094 30.878906 Z M 0.246094 0.851562 " fill-opacity="1" fill-rule="nonzero"/></g></g></g></g></g></g></svg>